<?xml version="1.0" encoding="UTF-8" standalone="no"?>
<!-- Created with Inkscape (http://www.inkscape.org/) -->

<svg
   xmlns:dc="http://purl.org/dc/elements/1.1/"
   xmlns:cc="http://creativecommons.org/ns#"
   xmlns:rdf="http://www.w3.org/1999/02/22-rdf-syntax-ns#"
   xmlns:svg="http://www.w3.org/2000/svg"
   xmlns="http://www.w3.org/2000/svg"
   xmlns:sodipodi="http://sodipodi.sourceforge.net/DTD/sodipodi-0.dtd"
   xmlns:inkscape="http://www.inkscape.org/namespaces/inkscape"
   width="744.09448819"
   height="1052.3622047"
   id="svg2"
   version="1.1"
   inkscape:version="0.48.4 r9939"
   sodipodi:docname="ugl-logo.svg">
  <defs
     id="defs4" />
  <sodipodi:namedview
     id="base"
     pagecolor="#ffffff"
     bordercolor="#666666"
     borderopacity="1.0"
     inkscape:pageopacity="0.0"
     inkscape:pageshadow="2"
     inkscape:zoom="0.98994949"
     inkscape:cx="168.53699"
     inkscape:cy="670.23233"
     inkscape:document-units="px"
     inkscape:current-layer="layer1"
     showgrid="true"
     inkscape:window-width="1920"
     inkscape:window-height="1027"
     inkscape:window-x="0"
     inkscape:window-y="25"
     inkscape:window-maximized="1">
    <inkscape:grid
       type="xygrid"
       id="grid2985"
       empspacing="5"
       visible="true"
       enabled="true"
       snapvisiblegridlinesonly="true"
       units="mm"
       spacingx="2.5mm"
       spacingy="2.5mm" />
  </sodipodi:namedview>
  <metadata
     id="metadata7">
    <rdf:RDF>
      <cc:Work
         rdf:about="">
        <dc:format>image/svg+xml</dc:format>
        <dc:type
           rdf:resource="http://purl.org/dc/dcmitype/StillImage" />
        <dc:title />
      </cc:Work>
    </rdf:RDF>
  </metadata>
  <g
     inkscape:label="Layer 1"
     inkscape:groupmode="layer"
     id="layer1">
    <path
       style="fill:#808080;fill-opacity:1;stroke:none"
       d="m 274.6063,308.26769 -8.85827,0 0,17.71654 c 0,0 0,88.58268 -88.58268,88.58268 0,0 -88.582673,0 -88.582673,-88.58268 l 0,-159.44882 35.433073,0 0,159.44882 c 0,53.14961 53.1496,53.14961 53.1496,53.14961 53.14961,0 53.14961,-53.14961 53.14961,-53.14961 l 0,-159.44882 35.43307,0 0,106.29921 17.71654,0 0,35.43307"
       id="path2987"
       inkscape:connector-curvature="0"
       sodipodi:nodetypes="ccccccccccccccc" />
    <path
       style="fill:#808080;fill-opacity:1;stroke:none"
       d="m 487.20472,325.98423 0,-124.01575 -106.29922,0 c 0,0 -53.1496,0 -53.1496,53.14961 l 0,70.86614 c 0,53.14961 53.1496,53.14961 53.1496,53.14961 0,0 53.14961,0 53.14961,-53.14961 l 0,-17.71654 -97.44094,0 0,-35.43307 132.87401,0 0,53.14961 c 0,88.58268 -88.58268,88.58268 -88.58268,88.58268 0,0 -88.58267,0 -88.58267,-88.58268 l 0,-70.86614 c 0,-88.58268 88.58267,-88.58268 88.58267,-88.58268 l 141.73229,0 0,159.44882 c 0,53.14961 53.1496,53.14961 53.1496,53.14961 l 88.58268,0 0,35.43307 -88.58268,0 c 0,0 -88.58267,0 -88.58267,-88.58268 z"
       id="path3838"
       inkscape:connector-curvature="0"
       sodipodi:nodetypes="cccccccccccccccccsccccc" />
  </g>
</svg>
